<svg viewBox="0 0 472 472" xmlns="http://www.w3.org/2000/svg" xmlns:xlink="http://www.w3.org/1999/xlink" id="Capa_1" overflow="hidden"><path d="M392 416C386.367 416 380.68 415.668 375.109 415.016L376.968 399.125C381.93 399.707 386.984 400 392 400L392 416ZM358.445 412.07C352.976 410.769 347.523 409.117 342.218 407.168L347.749 392.152C352.452 393.886 357.304 395.351 362.147 396.507L358.445 412.07ZM326.703 400.375C321.68 397.812 316.758 394.93 312.094 391.805L320.985 378.508C325.133 381.281 329.501 383.84 333.969 386.117L326.703 400.375ZM298.609 381.605C294.328 377.957 290.211 374.011 286.39 369.882L298.124 359.007C301.522 362.679 305.179 366.183 308.983 369.425L298.609 381.605ZM275.625 356.824C272.297 352.261 269.219 347.472 266.469 342.594L280.407 334.742C282.852 339.078 285.595 343.336 288.548 347.394L275.625 356.824ZM259.039 327.395C256.859 322.168 254.984 316.79 253.461 311.403L268.852 307.044C270.204 311.821 271.875 316.599 273.805 321.239L259.039 327.395ZM249.805 294.863C248.914 289.285 248.352 283.621 248.125 278.027L264.109 277.379C264.312 282.352 264.812 287.391 265.601 292.356L249.805 294.863ZM264.359 262.313 248.406 261.133C248.828 255.469 249.586 249.82 250.656 244.344L266.359 247.422C265.406 252.277 264.734 257.289 264.359 262.313ZM270.102 232.832 254.868 227.941C256.579 222.617 258.634 217.304 260.985 212.152L275.548 218.793C273.453 223.379 271.617 228.102 270.102 232.832ZM282.609 205.508 268.937 197.188C271.867 192.383 275.109 187.7 278.578 183.274L291.172 193.133C288.094 197.074 285.211 201.234 282.609 205.508ZM301.133 181.844 289.774 170.586C293.712 166.609 297.946 162.809 302.368 159.285L312.337 171.801C308.406 174.934 304.633 178.313 301.133 181.844ZM324.641 163.133 316.203 149.539C321 146.562 326.008 143.851 331.094 141.476L337.86 155.976C333.352 158.082 328.898 160.492 324.641 163.133ZM351.836 150.426 346.82 135.231C352.164 133.465 357.672 132.004 363.187 130.883L366.375 146.563C361.469 147.559 356.578 148.855 351.836 150.426ZM381.273 144.445 379.945 128.5C383.922 128.168 387.937 128 392 128L392 144C388.391 144 384.813 144.152 381.273 144.445Z" fill="#666666"/><path d="M280 352 280 320C280 315.582 276.418 312 272 312L242.83 312C239.285 312 236.278 309.629 235.181 306.258 233.638 301.515 231.739 296.936 229.509 292.55 227.902 289.389 228.353 285.587 230.861 283.08L251.48 262.461C254.604 259.337 254.604 254.271 251.48 251.147L228.852 228.52C225.728 225.396 220.663 225.396 217.538 228.52L196.919 249.139C194.411 251.647 190.609 252.098 187.448 250.491 183.062 248.261 178.484 246.362 173.741 244.819 170.37 243.723 167.999 240.715 167.999 237.17L167.999 208C167.999 203.582 164.417 200 159.999 200L127.999 200C123.581 200 119.999 203.582 119.999 208L119.999 237.17C119.999 240.715 117.628 243.722 114.257 244.819 109.514 246.362 104.935 248.261 100.55 250.491 97.389 252.098 93.587 251.647 91.079 249.139L70.461 228.52C67.337 225.396 62.272 225.396 59.147 228.52L36.52 251.147C33.396 254.271 33.396 259.337 36.52 262.461L57.139 283.08C59.647 285.588 60.098 289.39 58.491 292.55 56.261 296.936 54.362 301.515 52.819 306.258 51.722 309.629 48.714 312 45.17 312L16 312C11.582 312 8 315.582 8 320L8 352C8 356.418 11.582 360 16 360L45.17 360C48.715 360 51.722 362.371 52.819 365.742 54.362 370.485 56.261 375.064 58.491 379.449 60.098 382.61 59.647 386.412 57.139 388.92L36.52 409.539C33.396 412.663 33.396 417.729 36.52 420.853L59.148 443.481C62.272 446.605 67.338 446.605 70.462 443.481L91.081 422.862C93.588 420.354 97.39 419.903 100.551 421.51 104.937 423.74 109.515 425.639 114.259 427.182 117.63 428.279 120.001 431.286 120.001 434.831L120.001 464C120.001 468.418 123.583 472 128.001 472L160.001 472C164.419 472 168.001 468.418 168.001 464L168.001 434.83C168.001 431.286 170.372 428.278 173.743 427.181 178.486 425.638 183.065 423.739 187.451 421.509 190.612 419.902 194.414 420.353 196.921 422.861L217.54 443.48C220.664 446.604 225.73 446.604 228.854 443.48L251.482 420.852C254.606 417.728 254.606 412.662 251.482 409.538L230.863 388.919C228.355 386.411 227.904 382.609 229.511 379.448 231.741 375.062 233.64 370.484 235.183 365.741 236.279 362.37 239.287 359.999 242.832 359.999L272 359.999C276.418 360 280 356.418 280 352ZM177.979 371.942C127.469 409.284 70.716 352.531 108.058 302.021 108.599 301.29 109.289 300.599 110.021 300.058 160.531 262.716 217.284 319.469 179.942 369.979 179.401 370.71 178.71 371.401 177.979 371.942Z" fill="#666666"/><path d="M464 280 464 264C464 259.582 460.418 256 456 256L449.941 256C447.214 249.415 447.012 248.928 444.284 242.343L448.568 238.059C451.692 234.935 451.692 229.869 448.568 226.745L437.254 215.431C434.13 212.307 429.065 212.307 425.94 215.431L421.655 219.715C415.07 216.988 414.583 216.786 407.998 214.058L407.998 208C407.998 203.582 404.416 200 399.998 200L383.998 200C379.58 200 375.998 203.582 375.998 208L375.998 214.059C369.413 216.786 368.926 216.988 362.341 219.716L358.056 215.432C354.932 212.308 349.867 212.308 346.742 215.432L335.428 226.746C332.304 229.87 332.304 234.936 335.428 238.06L339.712 242.344C336.985 248.929 336.783 249.416 334.055 256.001L328 256.001C323.582 256.001 320 259.583 320 264.001L320 280.001C320 284.419 323.582 288.001 328 288.001L334.058 288.001C336.785 294.586 336.987 295.073 339.715 301.658L335.431 305.942C332.307 309.066 332.307 314.132 335.431 317.256L346.745 328.57C349.869 331.694 354.935 331.694 358.059 328.57L362.343 324.286C368.928 327.013 369.415 327.215 376 329.943L376 336C376 340.418 379.582 344 384 344L400 344C404.418 344 408 340.418 408 336L408 329.941C414.585 327.214 415.072 327.012 421.657 324.284L425.941 328.568C429.065 331.692 434.131 331.692 437.255 328.568L448.569 317.254C451.693 314.13 451.693 309.064 448.569 305.94L444.285 301.656C447.012 295.071 447.214 294.584 449.942 287.999L456 287.999C460.418 288 464 284.418 464 280ZM392 288C383.18 288 376 280.824 376 272 376 263.176 383.18 256 392 256 400.82 256 408 263.176 408 272 408 280.824 400.82 288 392 288Z" fill="#666666"/><path d="M328 120 326.644 120C326.644 80 320 8 248 8L248 0 200 0 200 8C128 8 121.356 80 121.356 120L120 120 104 120 104 152 344 152 344 120 328 120Z" fill="#666666"/><g><rect x="240" y="24" width="16" height="72" fill="#666666"/><rect x="192" y="24" width="16" height="72" fill="#666666"/><rect x="128" y="120" width="192" height="16" fill="#666666"/></g><g></g><g></g><g></g><g></g><g></g><g></g><g></g><g></g><g></g><g></g><g></g><g></g><g></g><g></g><g></g></svg>