<svg width="512" height="512" viewBox="0 0 512.046 512.046" xmlns="http://www.w3.org/2000/svg" xmlns:xlink="http://www.w3.org/1999/xlink" id="Layer_1" overflow="hidden">
<g><path d="M256.023 333.321C240.162 333.321 224.771 331.272 210.096 327.435L210.096 385.071 156.603 385.071 256.012 512.046 355.42 385.071 301.928 385.071 301.928 327.441C287.259 331.274 271.876 333.321 256.023 333.321Z" class="MsftOfcResponsive_Fill_44177a" fill="#44177A"/><path d="M256.023 303.321C339.649 303.321 407.684 235.287 407.684 151.661 407.684 68.035 339.649 2.84217e-14 256.023 2.84217e-14 172.398 2.84217e-14 104.363 68.035 104.363 151.661 104.363 235.287 172.397 303.321 256.023 303.321ZM240.99 80.663 240.99 61.086 270.99 61.086 270.99 80.536 297.222 80.536 297.222 110.536 244.116 110.536C237.22 110.536 231.611 116.146 231.611 123.042 231.611 129.938 237.221 135.548 244.116 135.548L275.571 135.548C299.623 135.548 319.19 155.115 319.19 179.166 319.19 203.218 299.623 222.785 275.571 222.785L270.99 222.785 270.99 242.235 240.99 242.235 240.99 222.785 207.79 222.785 207.79 192.785 275.57 192.785C283.08 192.785 289.189 186.676 289.189 179.166 289.189 171.657 283.08 165.548 275.57 165.548L244.115 165.548C220.677 165.548 201.61 146.48 201.61 123.042 201.61 100.657 219.008 82.271 240.99 80.663Z" class="MsftOfcResponsive_Fill_44177a" fill="#44177A"/></g></svg>