<svg width="512" height="512" viewBox="0 0 512.012 512.012" xmlns="http://www.w3.org/2000/svg" xmlns:xlink="http://www.w3.org/1999/xlink" id="Capa_1" overflow="hidden">
<g><path d="M333.201 115.038C304.296 56.017 243.831 16.996 176.008 16.996 78.961 16.996 0.008 95.501 0.008 191.996 0.008 218.22 5.638 243.355 16.75 266.79L0.299 349.055C-1.795 359.527 7.443 368.783 17.917 366.711L101.196 350.246C112.409 355.565 124.009 359.61 135.928 362.397 109.211 235.856 205.127 117.076 333.201 115.038Z" class="MsftOfcResponsive_Fill_44177a" fill="#44177A"/><path d="M495.266 394.79C498.14 388.729 500.639 382.553 502.777 376.276L502.228 376.276C539.676 266.359 460.923 150.835 344.661 145.21 344.659 145.204 344.658 145.198 344.656 145.192 244.62 140.582 161.508 220.678 161.508 319.996 161.508 416.41 239.869 494.853 336.251 494.993 362.394 494.958 387.452 489.33 410.819 478.246 502.026 496.278 494.913 494.996 497.008 494.996 506.487 494.996 513.568 486.31 511.717 477.055Z" class="MsftOfcResponsive_Fill_44177a" fill="#44177A"/></g></svg>