<svg width="512" height="512" viewBox="0 0 512 512" xmlns="http://www.w3.org/2000/svg" xmlns:xlink="http://www.w3.org/1999/xlink" id="Capa_1" overflow="hidden">
<g><path d="M299.538 87.106 284.538 87.106 284.538 294.758 161.414 461.661 173.474 470.567C210.176 497.673 253.768 512 299.538 512 416.682 512 511.984 416.696 511.984 299.553 511.984 182.41 416.681 87.106 299.538 87.106Z" class="MsftOfcResponsive_Fill_44177a" fill="#44177A"/><path d="M61.28 118.691C48.712 133.263 36.616 147.891 27.151 164.761 13.933 188.321 5.28 214.382 1.777 241.169-5.748 298.717 11.072 357.915 47.734 402.89 62.368 420.842 79.932 434.988 98.44 448.651L232.752 266.584Z" class="MsftOfcResponsive_Fill_44177a" fill="#44177A"/><path d="M239.394 0C208.521 0 179.147 3.03 150.683 16.077 122.21 29.128 100.73 49.409 80.563 72.797L239.394 209.784Z" class="MsftOfcResponsive_Fill_44177a" fill="#44177A"/></g></svg>