<svg viewBox="0 0 512 512" xmlns="http://www.w3.org/2000/svg" xmlns:xlink="http://www.w3.org/1999/xlink" id="Capa_1" overflow="hidden">
<g><g><g><path d="M469.333 106.667 362.667 106.667 362.667 85.333C362.667 61.802 343.532 42.666 320 42.666L192 42.666C168.469 42.666 149.333 61.801 149.333 85.333L149.333 106.666 42.667 106.666C19.135 106.667 0 125.802 0 149.333L0 213.333C0 236.865 19.135 256 42.667 256L213.334 256 213.334 245.333C213.334 239.437 218.105 234.666 224.001 234.666L288.001 234.666C293.897 234.666 298.668 239.437 298.668 245.333L298.668 256 469.335 256C492.865 256 512 236.865 512 213.333L512 149.333C512 125.802 492.865 106.667 469.333 106.667ZM320 106.667 192 106.667 192 85.333 320 85.333 320 106.667Z" class="MsftOfcResponsive_Fill_44177a" fill="#44177A"/><path d="M506.083 267.51C502.448 265.708 498.104 266.125 494.895 268.562 487.312 274.302 478.478 277.333 469.332 277.333L298.667 277.333 298.667 309.333C298.667 315.229 293.896 320 288 320L224 320C218.104 320 213.333 315.229 213.333 309.333L213.333 277.333 42.667 277.333C33.521 277.333 24.688 274.302 17.104 268.562 13.885 266.104 9.552 265.687 5.916 267.51 2.292 269.313 0 273.01 0 277.063L0 426.667C0 450.198 19.135 469.334 42.667 469.334L469.334 469.334C492.865 469.334 512.001 450.199 512.001 426.667L512.001 277.063C512 273.01 509.708 269.313 506.083 267.51Z" class="MsftOfcResponsive_Fill_44177a" fill="#44177A"/></g></g></g><g></g><g></g><g></g><g></g><g></g><g></g><g></g><g></g><g></g><g></g><g></g><g></g><g></g><g></g><g></g></svg>