<svg viewBox="0 0 512 512" xmlns="http://www.w3.org/2000/svg" xmlns:xlink="http://www.w3.org/1999/xlink" id="Capa_1" overflow="hidden">
<g><g><path d="M205.36 208.221C199.108 198.16 194.099 187.469 190.358 176.379L190.358 339.217 242.804 249.311C227.996 238.083 215.286 224.192 205.36 208.221Z" class="MsftOfcResponsive_Fill_44177a" fill="#44177A"/></g></g><g><g><path d="M334.769 4.923C267.021 4.923 211.903 60.041 211.903 127.789 211.903 137.265 213.018 146.572 215.115 155.569 215.162 155.773 215.21 155.978 215.258 156.181 215.491 157.161 215.737 158.137 215.994 159.109 216.045 159.301 216.097 159.493 216.15 159.684 217.295 163.929 218.664 168.095 220.247 172.169 220.317 172.348 220.384 172.528 220.455 172.708 220.808 173.603 221.173 174.493 221.546 175.378 221.656 175.641 221.768 175.903 221.881 176.165 222.254 177.033 222.633 177.898 223.026 178.757 223.127 178.98 223.233 179.2 223.336 179.422 224.641 182.233 226.049 184.992 227.559 187.694 227.669 187.892 227.776 188.091 227.887 188.289 228.312 189.041 228.752 189.785 229.194 190.527 229.404 190.879 229.612 191.232 229.825 191.582 230.25 192.281 230.682 192.975 231.121 193.665 231.361 194.044 231.606 194.42 231.852 194.796 232.291 195.471 232.732 196.145 233.184 196.812 233.428 197.171 233.68 197.527 233.928 197.883 234.857 199.219 235.809 200.537 236.789 201.836 236.991 202.104 237.188 202.378 237.392 202.643 237.828 203.211 238.277 203.769 238.724 204.331 239.081 204.78 239.437 205.23 239.801 205.675 240.236 206.206 240.677 206.731 241.121 207.254 241.518 207.723 241.918 208.187 242.321 208.65 242.755 209.148 243.192 209.644 243.634 210.135 244.08 210.629 244.534 211.118 244.988 211.605 245.406 212.054 245.821 212.506 246.246 212.949 246.91 213.641 247.587 214.322 248.267 214.999 248.748 215.478 249.236 215.951 249.725 216.422 250.357 217.031 250.991 217.636 251.636 218.232 252.037 218.601 252.444 218.963 252.85 219.326 253.423 219.84 253.998 220.351 254.581 220.854 255 221.216 255.423 221.575 255.847 221.931 256.451 222.438 257.06 222.938 257.673 223.435 258.078 223.763 258.482 224.092 258.892 224.414 259.621 224.988 260.36 225.55 261.102 226.109 261.404 226.335 261.701 226.569 262.005 226.793 263.045 227.559 264.098 228.309 265.165 229.044 265.472 229.256 265.785 229.459 266.094 229.667 266.883 230.2 267.675 230.726 268.478 231.242 268.882 231.501 269.29 231.755 269.697 232.01 270.431 232.469 271.169 232.922 271.914 233.366 272.333 233.616 272.754 233.865 273.176 234.111 273.965 234.569 274.761 235.015 275.562 235.456 275.935 235.662 276.305 235.87 276.681 236.072 277.855 236.703 279.038 237.321 280.237 237.915L301.546 270.769 320 299.218 322.379 302.886C325.102 307.084 329.766 309.618 334.769 309.618 339.773 309.618 344.436 307.085 347.159 302.886L349.538 299.218 350.948 297.044 367.821 271.031 389.301 237.916C390.503 237.32 391.69 236.701 392.865 236.069 393.243 235.866 393.615 235.654 393.991 235.448 394.79 235.008 395.583 234.563 396.37 234.106 396.8 233.857 397.227 233.603 397.653 233.348 398.389 232.909 399.118 232.463 399.843 232.009 400.262 231.746 400.683 231.484 401.098 231.217 401.862 230.726 402.618 230.222 403.37 229.715 403.721 229.479 404.076 229.247 404.424 229.007 405.488 228.272 406.541 227.525 407.579 226.76 407.855 226.556 408.123 226.344 408.396 226.14 409.167 225.561 409.934 224.978 410.689 224.382 411.111 224.049 411.526 223.71 411.943 223.371 412.541 222.888 413.134 222.401 413.722 221.907 414.169 221.531 414.612 221.152 415.053 220.77 415.598 220.297 416.139 219.819 416.677 219.336 417.123 218.935 417.57 218.536 418.01 218.13 418.541 217.64 419.063 217.14 419.583 216.64 420.005 216.235 420.434 215.836 420.85 215.426 421.699 214.59 422.536 213.742 423.359 212.883 423.835 212.387 424.297 211.879 424.764 211.375 425.165 210.943 425.567 210.511 425.962 210.073 426.45 209.531 426.929 208.982 427.406 208.432 427.758 208.027 428.108 207.622 428.454 207.213 428.946 206.632 429.433 206.047 429.913 205.457 430.216 205.085 430.515 204.71 430.813 204.334 431.317 203.7 431.82 203.066 432.313 202.423 432.503 202.174 432.687 201.92 432.876 201.67 434.699 199.246 436.431 196.757 438.07 194.207 438.208 193.991 438.349 193.779 438.485 193.562 438.992 192.763 439.486 191.956 439.975 191.145 440.12 190.905 440.263 190.664 440.406 190.424 440.902 189.587 441.39 188.746 441.866 187.898 441.954 187.742 442.038 187.585 442.125 187.429 444.311 183.497 446.283 179.445 448.031 175.286 448.046 175.251 448.062 175.215 448.076 175.18 448.508 174.149 448.925 173.112 449.328 172.07 449.356 172 449.382 171.929 449.41 171.859 451.911 165.368 453.87 158.645 455.247 151.749 455.247 151.748 455.248 151.746 455.248 151.745 456.805 143.943 457.632 135.929 457.632 127.789 457.635 60.041 402.519 4.923 334.769 4.923ZM334.769 194.501C297.985 194.501 268.057 164.574 268.057 127.789 268.057 91.004 297.984 61.076 334.769 61.076 371.554 61.076 401.481 91.003 401.481 127.789 401.481 164.574 371.553 194.501 334.769 194.501Z" class="MsftOfcResponsive_Fill_44177a" fill="#44177A"/></g></g><g><g><path d="M500.744 162.886 483.974 158.779C480.348 176.194 473.683 192.928 464.178 208.222 450.673 229.951 432.03 247.852 409.931 260.394L387.475 295.014 440.224 359.385 512 359.385 512 177.231C512 170.427 507.352 164.504 500.744 162.886Z" class="MsftOfcResponsive_Fill_44177a" fill="#44177A"/></g></g><g><g><path d="M18.282 123.501C13.879 122.422 9.221 123.426 5.651 126.226 2.084 129.027 0 133.311 0 137.846L0 280.615 78.769 280.615C82.729 280.615 86.523 282.205 89.299 285.029L160.82 357.762 160.82 158.408 18.282 123.501Z" class="MsftOfcResponsive_Fill_44177a" fill="#44177A"/></g></g><g><g><path d="M297.597 318.959 266.338 270.769 264.482 270.769 190.358 397.839 190.358 503.897 320 472.148 320 336.618C310.92 333.417 303.013 327.309 297.597 318.959Z" class="MsftOfcResponsive_Fill_44177a" fill="#44177A"/></g></g><g><g><path d="M433.23 388.923C428.805 388.923 424.613 386.938 421.807 383.514L370.55 320.963C365.212 328.288 357.873 333.68 349.538 336.616L349.538 471.342 493.717 506.651C494.88 506.936 496.057 507.075 497.229 507.075 500.502 507.075 503.721 505.987 506.348 503.925 509.916 501.125 512 496.842 512 492.306L512 388.923 433.23 388.923Z" class="MsftOfcResponsive_Fill_44177a" fill="#44177A"/></g></g><g><g><path d="M72.579 310.154 0 310.154 0 452.923C0 459.727 4.647 465.65 11.256 467.268L160.82 503.896 160.82 399.891 72.579 310.154Z" class="MsftOfcResponsive_Fill_44177a" fill="#44177A"/></g></g><g></g><g></g><g></g><g></g><g></g><g></g><g></g><g></g><g></g><g></g><g></g><g></g><g></g><g></g><g></g></svg>