<svg width="682.667" height="682.667" viewBox="0 0 512 512" xmlns="http://www.w3.org/2000/svg" xmlns:xlink="http://www.w3.org/1999/xlink" overflow="hidden">
<path d="M496.984 500.492C482.328 489.262 466.473 479.688 449.707 471.949L389.773 444.277C386.809 452.727 379.059 471.633 363.742 490.645 357.27 498.68 350.207 505.801 342.621 512L512 512Z" class="MsftOfcResponsive_Fill_44177a" fill="#44177A"/><path d="M148.258 490.645C132.941 471.633 125.191 452.727 122.227 444.277L62.293 471.949C45.5273 479.688 29.6719 489.262 15.0156 500.492L0 512 169.379 512C161.797 505.801 154.73 498.684 148.258 490.645Z" class="MsftOfcResponsive_Fill_44177a" fill="#44177A"/><path d="M353.648 417.996 353.648 414.582C327.215 436.805 293.145 450.211 256 450.211 218.855 450.211 184.785 436.805 158.355 414.582L158.355 417.996C158.355 423.832 154.934 429.18 149.641 431.621 149.641 431.621 172.789 512 256.004 512 339.215 512 362.363 431.621 362.363 431.621 357.066 429.18 353.648 423.832 353.648 417.996Z" class="MsftOfcResponsive_Fill_44177a" fill="#44177A"/><path d="M256 420.195C323.273 420.195 378 365.445 378 298.145L378 244.113 134 244.113 134 298.145C134 365.445 188.73 420.195 256 420.195Z" class="MsftOfcResponsive_Fill_44177a" fill="#44177A"/><path d="M102.359 214.098 409.641 214.098C417.926 214.098 424.641 207.379 424.641 199.094 424.641 190.805 417.926 184.086 409.641 184.086L397.039 184.086 397.039 168.57C397.039 120.203 372.586 77.4531 335.402 52.0195L335.402 115.336C335.402 123.625 328.688 130.344 320.402 130.344 312.121 130.344 305.402 123.625 305.402 115.336L305.402 42.4766C305.402 40.4805 305.801 38.5742 306.512 36.832 295.289 32.5117 283.383 29.5859 271 28.2695L271 133.742C271 142.031 264.281 148.75 256 148.75 247.715 148.75 241 142.031 241 133.742L241 28.2695C228.617 29.582 216.715 32.5117 205.496 36.8281 206.203 38.5742 206.602 40.4766 206.602 42.4766L206.602 115.336C206.602 123.625 199.887 130.344 191.602 130.344 183.316 130.344 176.602 123.625 176.602 115.336L176.602 52.0117C139.414 77.4453 114.957 120.203 114.957 168.57L114.957 184.086 102.355 184.086C94.0742 184.086 87.3555 190.805 87.3555 199.094 87.3555 207.379 94.0742 214.098 102.359 214.098Z" class="MsftOfcResponsive_Fill_44177a" fill="#44177A"/><path d="M335.402 42.4766C335.402 34.1875 328.688 27.4688 320.402 27.4688 314.117 27.4688 308.738 31.3438 306.512 36.8359 316.77 40.7852 326.457 45.8984 335.402 52.0195Z" class="MsftOfcResponsive_Fill_44177a" fill="#44177A"/><path d="M191.605 27.4688C183.32 27.4688 176.605 34.1875 176.605 42.4766L176.605 52.0117C185.551 45.8906 195.238 40.7773 205.496 36.8281 203.266 31.3438 197.891 27.4688 191.605 27.4688Z" class="MsftOfcResponsive_Fill_44177a" fill="#44177A"/><path d="M271 28.2695 271 15.0078C271 6.71875 264.285 1.77636e-15 256 1.77636e-15 247.715 1.77636e-15 241 6.71875 241 15.0078L241 28.2695C245.93 27.7422 250.934 27.4688 256 27.4688 261.066 27.4688 266.07 27.7422 271 28.2695Z" class="MsftOfcResponsive_Fill_44177a" fill="#44177A"/></svg>