<svg width="512" height="512" viewBox="0 0 510 510" xmlns="http://www.w3.org/2000/svg" xmlns:xlink="http://www.w3.org/1999/xlink" id="Capa_1" overflow="hidden">
<g><circle cx="255" cy="45" r="45" class="MsftOfcResponsive_Fill_44177a" fill="#44177A"/><circle cx="105" cy="315" r="45" class="MsftOfcResponsive_Fill_44177a" fill="#44177A"/><path d="M405 360C373.064 360 344.416 374.336 325.143 396.905L270 352.791 270 240 300 240 360 240 360 195C360 137.103 312.897 90 255 90 197.104 90 150 137.103 150 195L150 240 210 240 240 240 240 352.791 184.856 396.905C165.583 374.336 136.936 360 105 360 47.104 360 0 407.103 0 465L0 510 210 510 210 465C210 449.853 206.771 435.449 200.974 422.43L255 379.209 309.025 422.43C303.228 435.448 300 449.853 300 465L300 510 510 510 510 465C510 407.103 462.897 360 405 360Z" class="MsftOfcResponsive_Fill_44177a" fill="#44177A"/><circle cx="405" cy="315" r="45" class="MsftOfcResponsive_Fill_44177a" fill="#44177A"/></g></svg>