<svg width="512" height="512" viewBox="0 0 512 512" xmlns="http://www.w3.org/2000/svg" xmlns:xlink="http://www.w3.org/1999/xlink" id="Capa_1" overflow="hidden">
<g><path d="M421 91 421 151.06C431.05 149.62 441.26 149.67 451 151.06L451 76C451 67.72 444.28 61 436 61L360.94 61C362.376 71.049 362.331 81.265 360.94 91Z" class="MsftOfcResponsive_Fill_44177a" fill="#44177A"/><path d="M331.06 271C329.62 260.95 329.67 250.74 331.06 241L180.94 241C182.376 251.049 182.331 261.265 180.94 271Z" class="MsftOfcResponsive_Fill_44177a" fill="#44177A"/><path d="M505.51 423.65 441.17 379.3C431.199 372.435 417.65 379.621 417.65 391.65L417.65 421 360.94 421C362.376 431.05 362.331 441.264 360.94 451L417.65 451 417.65 480.35C417.65 492.478 431.297 499.515 441.17 492.7L505.51 448.35C514.146 442.395 514.164 429.618 505.51 423.65Z" class="MsftOfcResponsive_Fill_44177a" fill="#44177A"/><path d="M91 421 91 360.94C80.89 362.38 70.68 362.32 61 360.94L61 436C61 444.28 67.72 451 76 451L151.06 451C149.624 440.95 149.669 430.736 151.06 421Z" class="MsftOfcResponsive_Fill_44177a" fill="#44177A"/><path d="M256 0C215.458 0 182.231 31.911 180.111 71.935 179.217 68.725 177.265 65.758 174.205 63.649L109.858 19.302C99.918 12.453 86.346 19.588 86.346 31.653L86.346 61 46 61C37.716 61 31 67.716 31 76 31 84.284 37.716 91 46 91L86.347 91 86.347 120.347C86.347 132.506 100.006 139.491 109.859 132.698L174.206 88.351C177.262 86.245 179.217 83.276 180.112 80.06 182.229 120.086 215.456 152 256 152 297.906 152 332 117.907 332 76 332 34.093 297.906 0 256 0Z" class="MsftOfcResponsive_Fill_44177a" fill="#44177A"/><circle cx="256" cy="436" r="76" class="MsftOfcResponsive_Fill_44177a" fill="#44177A"/><circle cx="436" cy="256" r="76" class="MsftOfcResponsive_Fill_44177a" fill="#44177A"/><circle cx="76" cy="256" r="76" class="MsftOfcResponsive_Fill_44177a" fill="#44177A"/></g></svg>