<svg width="586.667" height="586.667" viewBox="0 0 440.6 440" xmlns="http://www.w3.org/2000/svg" xmlns:xlink="http://www.w3.org/1999/xlink" overflow="hidden">
<path d="M220.301 89.1992C147.801 89.1992 88.8984 148.199 88.8984 220.602 88.8984 293 147.898 352 220.301 352 292.699 352 351.699 293 351.699 220.602 351.699 148.199 292.801 89.1992 220.301 89.1992ZM286.199 189.102 206.898 263.898C205.434 265.336 203.453 266.129 201.398 266.102 199.25 266.121 197.188 265.254 195.699 263.699L154.199 221.102C151.16 217.945 151.227 212.926 154.355 209.855 157.48 206.785 162.496 206.805 165.602 209.898L201.602 246.898 275.199 177.5C278.402 174.461 283.461 174.598 286.5 177.801 289.539 181.004 289.402 186.062 286.199 189.102Z" class="MsftOfcResponsive_Fill_44177a" fill="#44177A"/><path d="M409 268.5 440.602 220.602 409 172.699C408.074 171.277 407.617 169.598 407.699 167.898L410.898 110.5 359.801 84.6016C358.289 83.8398 357.062 82.6133 356.301 81.1016L330.5 30 273.102 33.1992C271.402 33.2812 269.723 32.8281 268.301 31.8984L220.301 0.300781 172.398 31.8984C170.977 32.8281 169.297 33.2812 167.602 33.1992L110.199 30 84.3008 81.1016C83.5391 82.6133 82.3125 83.8398 80.8008 84.6016L29.6992 110.398 32.8984 167.801C32.9805 169.496 32.5273 171.176 31.6016 172.602L2.4869e-14 220.602 31.6016 268.5C32.5273 269.926 32.9805 271.602 32.8984 273.301L29.6992 330.699 80.8008 356.5C82.3125 357.262 83.5391 358.488 84.3008 360L110.102 411.102 167.5 407.898 167.898 407.898C169.457 407.918 170.984 408.367 172.301 409.199L220.199 440.801 268.102 409.199C269.523 408.273 271.203 407.82 272.898 407.898L330.301 411.102 356.102 360C356.863 358.488 358.09 357.262 359.602 356.5L410.699 330.699 407.5 273.301C407.586 271.598 408.102 269.945 409 268.5ZM220.301 368C139 368 72.8984 301.898 72.8984 220.602 72.8984 139.301 139 73.1992 220.301 73.1992 301.602 73.1992 367.699 139.301 367.699 220.602 367.699 301.898 301.602 368 220.301 368Z" class="MsftOfcResponsive_Fill_44177a" fill="#44177A"/></svg>