<svg width="45.008" height="45.009" viewBox="0 0 45.008 45.009" xmlns="http://www.w3.org/2000/svg" xmlns:xlink="http://www.w3.org/1999/xlink" id="Capa_1" overflow="hidden">
<g><path d="M43.462 35.997 32.061 24.627C33.258 22.275 33.906 19.665 33.906 16.951 33.906 12.423 32.141 8.166 28.94 4.965 25.739 1.763 21.481 0 16.953 0 12.426 0 8.167 1.763 4.966 4.965 1.765 8.167 0 12.424 0 16.952 0 21.48 1.764 25.737 4.966 28.938 8.167 32.14 12.425 33.903 16.952 33.903 19.666 33.903 22.277 33.257 24.627 32.061L35.998 43.463C37.027 44.492 38.38 45.009 39.73 45.009 41.08 45.009 42.431 44.492 43.461 43.463 45.524 41.4 45.524 38.059 43.462 35.997ZM9.444 24.459C7.439 22.453 6.335 19.788 6.335 16.952 6.335 14.116 7.439 11.45 9.445 9.444 11.45 7.439 14.116 6.334 16.952 6.334 19.788 6.334 22.454 7.438 24.46 9.444 26.465 11.449 27.57 14.115 27.57 16.951 27.57 19.787 26.465 22.453 24.46 24.459 22.454 26.464 19.787 27.568 16.952 27.568 14.117 27.568 11.451 26.465 9.444 24.459Z" class="MsftOfcResponsive_Fill_44177a" fill="#44177A"/></g><g></g><g></g><g></g><g></g><g></g><g></g><g></g><g></g><g></g><g></g><g></g><g></g><g></g><g></g><g></g></svg>