<svg width="512" height="512" viewBox="0 0 511.639 511.639" xmlns="http://www.w3.org/2000/svg" xmlns:xlink="http://www.w3.org/1999/xlink" id="Capa_1" overflow="hidden">
<g><path d="M255.823 189.029 195.933 175.339 255.823 254.73 315.713 175.339Z" class="MsftOfcResponsive_Fill_44177a" fill="#44177A"/><path d="M386.023 52.809C315.857-18.843 191.115-17.42 122.593 56.091 39.143 139.246 58.237 285.103 159.273 344.639L240.823 344.639 240.823 284.659 153.323 168.659 153.323 134.819 255.823 158.249 358.323 134.819 358.323 168.659 270.823 284.659 270.823 344.639 352.383 344.639C455.019 284.283 472.62 135.062 386.023 52.809Z" class="MsftOfcResponsive_Fill_44177a" fill="#44177A"/><path d="M159.823 374.639 159.823 442.639 351.823 442.639 351.823 374.639C344.346 374.639 159.823 374.639 159.823 374.639Z" class="MsftOfcResponsive_Fill_44177a" fill="#44177A"/><path d="M195.823 472.639 315.823 472.639 315.823 511.639 195.823 511.639Z" class="MsftOfcResponsive_Fill_44177a" fill="#44177A"/></g></svg>