<svg viewBox="0 0 485.811 485.811" xmlns="http://www.w3.org/2000/svg" xmlns:xlink="http://www.w3.org/1999/xlink" id="Capa_1" overflow="hidden"><g><path d="M476.099 353.968 305.899 59.168C278.099 10.468 207.799 10.468 180.099 59.168L9.799 353.968C-18.001 402.668 16.599 463.168 72.699 463.168L412.599 463.168C468.699 463.168 503.899 402.068 476.099 353.968ZM242.899 397.768C228.099 397.768 215.799 385.468 215.799 370.668 215.799 355.868 228.099 343.568 242.899 343.568 257.699 343.568 269.999 355.868 269.399 371.368 270.099 385.468 257.099 397.768 242.899 397.768ZM267.599 222.568C266.399 243.568 265.099 264.468 263.899 285.468 263.299 292.268 263.299 298.468 263.299 305.168 262.699 316.268 253.999 324.868 242.899 324.868 231.799 324.868 223.199 316.868 222.499 305.768 220.699 273.068 218.799 240.968 216.999 208.268 216.399 199.668 215.799 190.968 215.099 182.368 215.099 168.168 223.099 156.468 236.099 152.768 249.099 149.668 261.999 155.868 267.599 168.168 269.499 172.468 270.099 176.768 270.099 181.768 269.499 195.468 268.199 209.068 267.599 222.568Z" fill="#44177A"/></g><g></g><g></g><g></g><g></g><g></g><g></g><g></g><g></g><g></g><g></g><g></g><g></g><g></g><g></g><g></g></svg>