<svg viewBox="0 0 295 295" xmlns="http://www.w3.org/2000/svg" xmlns:xlink="http://www.w3.org/1999/xlink" id="Capa_1" overflow="hidden"><path d="M295 230.5C295 238.784 288.284 245.5 280 245.5L243.667 245.5 243.667 279.5C243.667 287.784 236.951 294.5 228.667 294.5 220.383 294.5 213.667 287.784 213.667 279.5L213.667 245.5 79.667 245.5 79.667 279.5C79.667 287.784 72.951 294.5 64.667 294.5 56.383 294.5 49.667 287.784 49.667 279.5L49.667 245.5 16 245.5C7.716 245.5 1 238.784 1 230.5 1 222.216 7.716 215.5 16 215.5L49.667 215.5 49.667 81.5 15 81.5C6.716 81.5 0 74.784 0 66.5 0 58.216 6.716 51.5 15 51.5L49.667 51.5 49.667 15.5C49.667 7.216 56.383 0.5 64.667 0.5 72.951 0.5 79.667 7.216 79.667 15.5L79.667 50.5 213.667 50.5 213.667 15.5C213.667 7.216 220.383 0.5 228.667 0.5 236.951 0.5 243.667 7.216 243.667 15.5L243.667 51.5 279 51.5C287.284 51.5 294 58.216 294 66.5 294 74.784 287.284 81.5 279 81.5L244.667 81.5 244.667 215.5 280 215.5C288.284 215.5 295 222.216 295 230.5Z" fill="#44177A"/><g></g><g></g><g></g><g></g><g></g><g></g><g></g><g></g><g></g><g></g><g></g><g></g><g></g><g></g><g></g></svg>