<svg width="512" height="512" viewBox="0 0 64 64" xmlns="http://www.w3.org/2000/svg" xmlns:xlink="http://www.w3.org/1999/xlink" id="Layer_5" overflow="hidden"><g><path d="M56 41C54.895 41 54 41.895 54 43L54 42C54 40.895 53.105 40 52 40 50.895 40 50 40.895 50 42L50 41C50 39.895 49.105 39 48 39 46.895 39 46 39.895 46 41L46 32C46 30.895 45.105 30 44 30 42.895 30 42 30.895 42 32L42 46.382C42 43.962 40.038 42 37.618 42 36.724 42 36 42.725 36 43.618 36 43.869 36.058 44.117 36.171 44.342L37.367 46.733C37.783 47.567 38 48.485 38 49.417L38 51.999C37.999 57.522 42.476 62 48 62 53.523 62 58 57.523 58 52L58 43C58 41.896 57.105 41 56 41Z" fill="#336699"/><path d="M36 23C34.346 23 33 21.654 33 20L33 12C33 11.449 32.551 11 32 11 31.449 11 31 11.449 31 12L31 20C31 21.654 29.654 23 28 23 26.346 23 25 21.654 25 20L25 15C25 14.449 24.551 14 24 14 23.449 14 23 14.449 23 15L23 18C23 19.654 21.654 21 20 21 18.346 21 17 19.654 17 18L17 12C17 11.449 16.551 11 16 11 15.449 11 15 11.449 15 12L15 22C15 23.654 13.654 25 12 25 10.346 25 9 23.654 9 22L9 21C9 20.449 8.551 20 8 20L7 20 7 27 37.001 27 37.001 23Z" fill="#336699"/><path d="M11 21 11 22C11 22.551 11.449 23 12 23 12.551 23 13 22.551 13 22L13 12C13 10.346 14.346 9 16 9 17.654 9 19 10.346 19 12L19 18C19 18.551 19.449 19 20 19 20.551 19 21 18.551 21 18L21 15C21 13.346 22.346 12 24 12 25.654 12 27 13.346 27 15L27 20C27 20.551 27.449 21 28 21 28.551 21 29 20.551 29 20L29 12C29 10.346 30.346 9 32 9 33.654 9 35 10.346 35 12L35 20C35 20.551 35.449 21 36 21L37.001 21 37 7 7 7 7 18 8 18C9.654 18 11 19.346 11 21Z" fill="#336699"/><path d="M58 3 6 3C4.346 3 3 4.346 3 6L3 46C3 47.654 4.346 49 6 49L35.951 49C35.9 48.525 35.791 48.055 35.577 47.627L34.382 45.236C34.132 44.735 34 44.176 34 43.619 34 41.624 35.623 40 37.618 40 38.459 40 39.264 40.164 40 40.461L40 32C40 29.794 41.794 28 44 28 46.206 28 48 29.794 48 32L48 37C49.104 37 50.104 37.449 50.829 38.175 51.2 38.061 51.593 38 52 38 53.104 38 54.104 38.449 54.829 39.175 55.2 39.061 55.593 39 56 39 58.206 39.001 60 40.795 60 43L60 48.22C60.609 47.671 61 46.883 61 46L61 6C61 4.346 59.654 3 58 3ZM9 46C7.343 46 6 44.657 6 43 6 41.343 7.343 40 9 40 10.657 40 12 41.343 12 43 12 44.657 10.657 46 9 46ZM6 34C6 32.895 6.895 32 8 32 9.105 32 10 32.895 10 34 10 35.105 9.105 36 8 36 6.895 36 6 35.105 6 34ZM14 34C14 32.895 14.895 32 16 32 17.105 32 18 32.895 18 34 18 35.105 17.105 36 16 36 14.895 36 14 35.105 14 34ZM19 46C17.343 46 16 44.657 16 43 16 41.343 17.343 40 19 40 20.657 40 22 41.343 22 43 22 44.657 20.657 46 19 46ZM24 36C22.895 36 22 35.105 22 34 22 32.895 22.895 32 24 32 25.105 32 26 32.895 26 34 26 35.105 25.105 36 24 36ZM29 46C27.343 46 26 44.657 26 43 26 41.343 27.343 40 29 40 30.657 40 32 41.343 32 43 32 44.657 30.657 46 29 46ZM32 36C30.895 36 30 35.105 30 34 30 32.895 30.895 32 32 32 33.105 32 34 32.895 34 34 34 35.105 33.105 36 32 36ZM39 27C39 28.103 38.103 29 37 29L7 29C5.897 29 5 28.103 5 27L5 7C5 5.897 5.897 5 7 5L37 5C38.103 5 39 5.897 39 7ZM45 24.816 45 27 43 27 43 24.816C41.839 24.402 41 23.302 41 22 41 20.698 41.839 19.598 43 19.184L43 5 45 5 45 19.184C46.161 19.598 47 20.698 47 22 47 23.302 46.161 24.402 45 24.816ZM51 14.816 51 27 49 27 49 14.816C47.839 14.402 47 13.302 47 12 47 10.698 47.839 9.598 49 9.184L49 5 51 5 51 9.184C52.161 9.598 53 10.698 53 12 53 13.302 52.161 14.402 51 14.816ZM57 22.816 57 27 55 27 55 22.816C53.839 22.402 53 21.302 53 20 53 18.698 53.839 17.598 55 17.184L55 5 57 5 57 17.184C58.161 17.598 59 18.698 59 20 59 21.302 58.161 22.402 57 22.816Z" fill="#336699"/></g></svg>