<svg width="512" height="512" viewBox="0 0 60 58" xmlns="http://www.w3.org/2000/svg" xmlns:xlink="http://www.w3.org/1999/xlink" id="_x33_0" overflow="hidden">
<g><path d="M45.966 14 53.95 14C53.807 11.845 53.218 9.812 52.257 8L45.1 8C45.571 9.757 45.889 11.762 45.966 14Z" class="MsftOfcResponsive_Fill_44177a" fill="#44177A"/><path d="M51.011 24 44.477 24C43.544 26.576 42.349 28.502 41.371 29.803 45.327 29.182 48.734 27.044 51.011 24Z" class="MsftOfcResponsive_Fill_44177a" fill="#44177A"/><path d="M53.952 16 45.971 16C45.894 18.24 45.569 20.24 45.096 22L52.288 22C53.237 20.19 53.811 18.157 53.952 16Z" class="MsftOfcResponsive_Fill_44177a" fill="#44177A"/><path d="M36.615 0.213C33.328 0.744 30.29 2.351 28 4.824L28 6 33.529 6C34.462 3.427 35.648 1.501 36.615 0.213Z" class="MsftOfcResponsive_Fill_44177a" fill="#44177A"/><path d="M42.31 6C41.195 3.234 39.808 1.382 39 0.454 38.193 1.382 36.806 3.234 35.691 6Z" class="MsftOfcResponsive_Fill_44177a" fill="#44177A"/><path d="M50.972 6C48.687 2.969 45.288 0.835 41.382 0.208 42.35 1.496 43.538 3.424 44.471 6Z" class="MsftOfcResponsive_Fill_44177a" fill="#44177A"/><path d="M28 26C28 26.015 27.996 26.028 27.996 26.042 28.33 26.023 28.663 26 29 26 31.065 26 33.053 26.383 34.902 27.071 34.424 26.177 33.955 25.152 33.537 24L28 24Z" class="MsftOfcResponsive_Fill_44177a" fill="#44177A"/><path d="M39.148 29.38C39.952 28.427 41.252 26.626 42.309 24L35.674 24C36.558 26.205 37.625 27.83 38.445 28.881 38.683 29.041 38.917 29.208 39.148 29.38Z" class="MsftOfcResponsive_Fill_44177a" fill="#44177A"/><path d="M43.006 22C43.519 20.27 43.883 18.267 43.97 16L34.025 16C34.11 18.269 34.47 20.272 34.979 22Z" class="MsftOfcResponsive_Fill_44177a" fill="#44177A"/><path d="M34.998 8C34.484 9.73 34.122 11.733 34.035 14L43.966 14C43.879 11.733 43.517 9.73 43.003 8Z" class="MsftOfcResponsive_Fill_44177a" fill="#44177A"/><path d="M28 16 28 22 32.908 22C32.433 20.239 32.103 18.239 32.025 16Z" class="MsftOfcResponsive_Fill_44177a" fill="#44177A"/><path d="M7.582 38.092C9.269 37.874 10.978 38.051 12.582 38.608 13.245 36.119 14.46 33.883 16.063 32L3.55271e-15 32 3.55271e-15 42 0.535 42C2.272 39.909 4.766 38.455 7.582 38.092Z" class="MsftOfcResponsive_Fill_44177a" fill="#44177A"/><path d="M26 14 32.034 14C32.112 11.762 32.429 9.757 32.9 8L28 8 28 10C28 11.103 27.103 12 26 12Z" class="MsftOfcResponsive_Fill_44177a" fill="#44177A"/><path d="M18.077 30C18.985 29.237 19.966 28.561 21.017 28L2 28 2 30Z" class="MsftOfcResponsive_Fill_44177a" fill="#44177A"/><path d="M50.162 40.075C48.445 39.853 46.708 40.133 45.137 40.882L43.968 41.44 43.724 40.168C42.375 33.117 36.183 28 29 28 21.817 28 15.625 33.117 14.276 40.167L14.032 41.439 12.863 40.881C11.642 40.299 10.321 40.001 8.987 40.001 8.604 40.001 8.22 40.025 7.838 40.075 3.721 40.606 0.443 43.981 0.044 48.098-0.206 50.677 0.607 53.144 2.334 55.046 4.037 56.924 6.467 58 9 58L49 58C51.533 58 53.963 56.924 55.666 55.047 57.393 53.145 58.206 50.677 57.956 48.099 57.557 43.981 54.28 40.606 50.162 40.075ZM25 43 25 53 21 53 21 43 19 43 23 37 27 43ZM35 53 31 47 33 47 33 37 37 37 37 47 39 47Z" class="MsftOfcResponsive_Fill_44177a" fill="#44177A"/><path d="M0 0 26 0 26 10 0 10Z" class="MsftOfcResponsive_Fill_44177a" fill="#44177A"/><path d="M2 12 24 12 24 14 2 14Z" class="MsftOfcResponsive_Fill_44177a" fill="#44177A"/><path d="M0 16 26 16 26 26 0 26Z" class="MsftOfcResponsive_Fill_44177a" fill="#44177A"/><path d="M50 32 52 32 52 34 50 34Z" class="MsftOfcResponsive_Fill_44177a" fill="#44177A"/><path d="M54 32 56 32 56 34 54 34Z" class="MsftOfcResponsive_Fill_44177a" fill="#44177A"/><path d="M58 32 60 32 60 34 58 34Z" class="MsftOfcResponsive_Fill_44177a" fill="#44177A"/></g></svg>