<svg viewBox="0 0 27.855 27.855" xmlns="http://www.w3.org/2000/svg" xmlns:xlink="http://www.w3.org/1999/xlink" id="Capa_1" overflow="hidden">
<g><path d="M27.604 6.751 14.176 20.18C13.838 20.516 13.291 20.516 12.953 20.18L12.683 19.91 12.683 19.91 12.39 19.617 11.122 18.349 11.104 18.322 5.297 12.47C4.961 12.134 4.961 11.585 5.297 11.249L7.127 9.421C7.465 9.082 8.01 9.082 8.348 9.421L13.571 14.683 24.551 3.7C24.889 3.363 25.436 3.363 25.772 3.7L27.604 5.532C27.939 5.867 27.939 6.415 27.604 6.751Z" class="MsftOfcResponsive_Fill_44177a" fill="#44177A"/><path d="M21.795 22.613C21.795 23.586 21.002 24.379 20.027 24.379L3.535 24.379C2.56 24.379 1.767 23.586 1.767 22.613L1.767 5.241C1.767 4.268 2.56 3.475 3.535 3.475L20.027 3.475C21.002 3.475 21.795 4.268 21.795 5.241L21.795 5.241 23.051 4.079C23.254 2.649 21.809 1.71 20.027 1.71L3.535 1.71C1.582 1.71 0 3.29 0 5.241L0 22.613C0 24.564 1.582 26.146 3.535 26.146L20.027 26.146C21.98 26.146 23.562 24.564 23.562 22.613L23.562 12.257 21.794 14.181 21.795 22.613 21.795 22.613Z" class="MsftOfcResponsive_Fill_44177a" fill="#44177A"/><g></g><g></g><g></g><g></g><g></g><g></g><g></g><g></g><g></g><g></g><g></g><g></g><g></g><g></g><g></g></g><g></g><g></g><g></g><g></g><g></g><g></g><g></g><g></g><g></g><g></g><g></g><g></g><g></g><g></g><g></g></svg>