<svg viewBox="0 0 512.432 512.432" xmlns="http://www.w3.org/2000/svg" xmlns:xlink="http://www.w3.org/1999/xlink" id="Capa_1" overflow="hidden"><g><g><path d="M424.091 324.128 188.293 89.419C184.154 85.28 177.392 85.28 173.232 89.44L131.141 131.531C126.981 135.691 126.981 142.454 131.141 146.614L144.922 160.417 78.554 226.785C35.653 269.686 33.519 337.548 71.087 383.585L3.12 451.552C-1.04 455.712-1.04 462.475 3.12 466.635L45.787 509.302C47.878 511.393 50.608 512.417 53.339 512.417 56.07 512.417 58.8 511.372 60.891 509.302L128.859 441.334C150.363 458.87 176.39 468.193 202.694 468.193 232.731 468.193 262.79 456.758 285.659 433.889L352.027 367.521 365.808 381.302C369.925 385.419 376.624 385.462 380.784 381.409L424.005 339.318C426.053 337.313 427.205 334.582 427.226 331.745 427.248 328.907 426.096 326.133 424.091 324.128Z" fill="#FFFFFF"/></g></g><g><g><path d="M372.379 11.936C356.507-3.957 330.63-3.957 314.758 11.936L227.931 98.763 285.808 156.384 372.485 69.685C380.186 61.984 384.432 51.765 384.432 40.864 384.432 29.963 380.187 19.744 372.379 11.936Z" fill="#FFFFFF"/></g></g><g><g><path d="M500.357 139.936C484.485 124.043 458.608 124.043 442.736 139.936L356.208 226.464 414.107 284.085 500.486 197.706C508.187 190.005 512.433 179.786 512.433 168.885 512.433 157.984 508.187 147.744 500.357 139.936Z" fill="#FFFFFF"/></g></g><g></g><g></g><g></g><g></g><g></g><g></g><g></g><g></g><g></g><g></g><g></g><g></g><g></g><g></g><g></g></svg>