<svg width="512" height="512" viewBox="0 0 59.707 60" xmlns="http://www.w3.org/2000/svg" xmlns:xlink="http://www.w3.org/1999/xlink" id="_x33_0" overflow="hidden">
<g><path d="M52 40 52 31C52.552 31 53 30.552 53 30L53 27.705C52.366 27.895 51.695 28 51 28 50.305 28 49.634 27.895 49 27.705L49 30C49 30.552 49.448 31 50 31L50 40Z" class="MsftOfcResponsive_Fill_336699" fill="#336699"/><path d="M8 13C8 6.935 12.935 2 19 2L22.685 2C23.042 1.251 23.524 0.574 24.11 0L19 0C11.832 0 6 5.832 6 13L6 14.089C6.633 13.68 7.302 13.327 8 13.031Z" class="MsftOfcResponsive_Fill_336699" fill="#336699"/><path d="M48 42 46 42 46 44 48 44 48 46.586 46 48.586 46 57C46 58.654 47.346 60 49 60L53 60C54.654 60 56 58.654 56 57L56 48.586 54 46.586 54 44 56 44 56 42 54 42Z" class="MsftOfcResponsive_Fill_336699" fill="#336699"/><path d="M55.379 32.5 59.622 32.5 59.622 34.5 55.379 34.5Z" class="MsftOfcResponsive_Fill_336699" fill="#336699" transform="matrix(0.707 -0.707 0.707 0.707 -6.847 50.471)"/><path d="M56.5 36.379 58.5 36.379 58.5 40.622 56.5 40.622Z" class="MsftOfcResponsive_Fill_336699" fill="#336699" transform="matrix(0.707 -0.707 0.707 0.707 -10.382 51.935)"/><path d="M43.5 31.379 45.5 31.379 45.5 35.622 43.5 35.622Z" class="MsftOfcResponsive_Fill_336699" fill="#336699" transform="matrix(0.707 -0.707 0.707 0.707 -10.654 41.278)"/><path d="M42.379 37.5 46.622 37.5 46.622 39.5 42.379 39.5Z" class="MsftOfcResponsive_Fill_336699" fill="#336699" transform="matrix(0.707 -0.707 0.707 0.707 -14.19 42.743)"/><path d="M22 42 24.478 42C25.438 40.569 26 38.849 26 37L26 30 14 30 14 34 11 34C9.346 34 8 35.346 8 37 8 38.654 9.346 40 11 40L14 40 14 46 17 46C19.136 46 21.099 45.248 22.644 44L22 44C19.794 44 18 42.206 18 40L20 40C20 41.103 20.897 42 22 42ZM12.293 38.707 10.293 36.707 11.707 35.293 13.707 37.293ZM18 35C18 33.346 19.346 32 21 32 22.654 32 24 33.346 24 35L24 36 22 36 22 35C22 34.449 21.551 34 21 34 20.449 34 20 34.449 20 35L20 36 18 36Z" class="MsftOfcResponsive_Fill_336699" fill="#336699"/><path d="M20 52 20 48C20 47.848 20.02 47.702 20.052 47.56 19.215 47.802 18.337 47.943 17.431 47.978 17.784 48.574 18 49.259 18 50L18 52Z" class="MsftOfcResponsive_Fill_336699" fill="#336699"/><path d="M12 42 11 42C8.243 42 6 39.757 6 37 6 34.243 8.243 32 11 32L12 32 12 30 2 30 2 35C2 40.728 6.402 45.442 12 45.949Z" class="MsftOfcResponsive_Fill_336699" fill="#336699"/><path d="M13 22C11.698 22 10.598 22.839 10.184 24L17.815 24C17.401 22.839 16.301 22 14.999 22Z" class="MsftOfcResponsive_Fill_336699" fill="#336699"/><path d="M10 50C10 49.615 10.055 49.242 10.157 48.889 8.854 49.792 8 51.298 8 53L8 58 11.002 58C10.374 57.164 10 56.125 10 55Z" class="MsftOfcResponsive_Fill_336699" fill="#336699"/><path d="M19.899 24 21.92 24C21.432 20.613 18.519 18 15 18L13 18C9.481 18 6.568 20.613 6.08 24L8.101 24C8.566 21.721 10.585 20 13 20L15 20C17.414 20 19.434 21.721 19.899 24Z" class="MsftOfcResponsive_Fill_336699" fill="#336699"/><path d="M56 21 56 12 46 12 46 21C46 23.757 48.243 26 51 26 53.757 26 56 23.757 56 21ZM51 23C49.895 23 49 22.105 49 21 49 19.895 49.895 19 51 19 52.105 19 53 19.895 53 21 53 22.105 52.105 23 51 23Z" class="MsftOfcResponsive_Fill_336699" fill="#336699"/><path d="M13 16 15 16C19.624 16 23.441 19.507 23.941 24L25.949 24C25.442 18.402 20.728 14 15 14L13 14C7.272 14 2.558 18.402 2.051 24L4.059 24C4.559 19.507 8.376 16 13 16Z" class="MsftOfcResponsive_Fill_336699" fill="#336699"/><path d="M22.262 6.871 15.8 12.041C19.628 12.276 23.008 14.166 25.234 17.012L27.531 11.843C24.985 11.296 22.954 9.361 22.262 6.871Z" class="MsftOfcResponsive_Fill_336699" fill="#336699"/><path d="M29 10C31.757 10 34 7.757 34 5 34 2.243 31.757 0 29 0 26.243 0 24 2.243 24 5 24 7.757 26.243 10 29 10ZM29 3C30.105 3 31 3.895 31 5 31 6.105 30.105 7 29 7 27.895 7 27 6.105 27 5 27 3.895 27.895 3 29 3Z" class="MsftOfcResponsive_Fill_336699" fill="#336699"/><path d="M0 26 28.001 26 28.001 28 0 28Z" class="MsftOfcResponsive_Fill_336699" fill="#336699"/><path d="M16 50C16 48.897 15.103 48 14 48 12.897 48 12 48.897 12 50L12 55C12 56.654 13.346 58 15 58L22 58 22 54 16 54Z" class="MsftOfcResponsive_Fill_336699" fill="#336699"/><path d="M33.89 10 57 10C57.551 10 58 9.551 58 9L58 3C58 2.449 57.551 2 57 2L35.315 2C35.75 2.911 36 3.925 36 5 36 6.958 35.19 8.728 33.89 10ZM50 4 52 4 52 8 50 8ZM46 4 48 4 48 8 46 8ZM42 4 44 4 44 8 42 8ZM38 4 40 4 40 8 38 8Z" class="MsftOfcResponsive_Fill_336699" fill="#336699"/><path d="M26 54 24 54 24 58 26 58C27.103 58 28 57.103 28 56 28 54.897 27.103 54 26 54Z" class="MsftOfcResponsive_Fill_336699" fill="#336699"/><path d="M22 52 26 52C26.732 52 27.409 52.212 28 52.556L28 48 22 48Z" class="MsftOfcResponsive_Fill_336699" fill="#336699"/><path d="M31.292 20C29.947 20 28.601 19.682 27.397 19.081L26.21 18.488C26.721 19.358 27.139 20.288 27.438 21.271 28.666 21.744 29.978 22.001 31.292 22.001 36.957 22.001 41.597 17.575 41.964 12.001L39.964 12.001C39.602 16.471 35.855 20 31.292 20Z" class="MsftOfcResponsive_Fill_336699" fill="#336699"/></g></svg>