<svg width="512" height="512" viewBox="0 0 512 512" xmlns="http://www.w3.org/2000/svg" xmlns:xlink="http://www.w3.org/1999/xlink" id="Capa_1" overflow="hidden"><g><path d="M451 0 361 0 361 30 151 30 151 0 61 0 61 30 0 30 0 60 61 60 61 151 91 151 91 183.763C73.578 189.976 61 206.47 61 226 61 250.814 81.186 271 106 271 112.927 271 119.412 269.297 125.279 266.49L140 281.211 140 323.648 161.226 344.859 182.437 323.648 170 311.226 170 290 191.226 290 203.648 302.437 224.859 281.226 203.647 260 161.21 260 146.489 245.279C149.296 239.412 150.999 232.927 150.999 226 150.999 206.47 138.421 189.976 120.999 183.763L120.999 151 150.999 151 150.999 60 360.999 60 360.999 151 390.999 151 390.999 183.763C373.577 189.976 360.999 206.47 360.999 226 360.999 232.927 362.702 239.412 365.509 245.279L350.789 260 308.352 260 287.141 281.226 308.352 302.437 320.774 290 342 290 342 311.226 329.563 323.648 350.774 344.859 372 323.647 372 281.21 386.721 266.489C392.588 269.296 399.073 270.999 406 270.999 430.814 270.999 451 250.813 451 225.999 451 206.469 438.422 189.975 421 183.762L421 151 451 151 451 60 512 60 512 30 451 30Z" fill="#FFFFFF"/><path d="M181 361 181 482 91 482 91 512 421 512 421 482 331 482 331 361 271 361 271 421 241 421 241 361Z" fill="#FFFFFF"/></g></svg>