<svg width="512" height="512" viewBox="0 0 512 512" xmlns="http://www.w3.org/2000/svg" xmlns:xlink="http://www.w3.org/1999/xlink" id="Capa_1" overflow="hidden"><g><path d="M211 242C202.716 242 196 248.716 196 257L196 317 316 317 316 257C316 248.716 309.284 242 301 242Z" fill="#44177A"/><path d="M505.255 409.477 414.402 349.573C414.388 349.564 414.375 349.555 414.361 349.546L414.256 349.477 414.254 349.481C411.885 347.916 409.051 347 406 347L106 347C102.949 347 100.115 347.916 97.747 349.481L97.745 349.477 97.64 349.546C97.626 349.555 97.613 349.564 97.599 349.573L6.745 409.477C-0.172 414.037-2.081 423.341 2.479 430.257 7.039 437.173 16.343 439.083 23.259 434.523L91 389.858 91 497C91 505.284 97.716 512 106 512L406 512C414.284 512 421 505.284 421 497L421 389.858 488.741 434.523C495.657 439.083 504.961 437.173 509.521 430.257 514.082 423.341 512.172 414.037 505.255 409.477ZM206 452 166 452C157.716 452 151 445.284 151 437 151 428.716 157.716 422 166 422L206 422C214.284 422 221 428.716 221 437 221 445.284 214.284 452 206 452Z" fill="#44177A"/><path d="M191.849 203.818C186.688 195.32 183.183 185.716 181.745 175.457L124.793 201.344C119.439 203.778 116 209.118 116 215L116 277C116 285.284 122.716 292 131 292L166 292 166 262 146 262 146 224.658Z" fill="#44177A"/><path d="M346 262 346 292 381 292C389.284 292 396 285.284 396 277L396 215C396 209.118 392.562 203.778 387.207 201.345L330.255 175.458C328.817 185.716 325.312 195.321 320.151 203.819L366 224.658 366 262Z" fill="#44177A"/><path d="M15 30 62.89 30C69.551 55.878 93.043 75 121 75L241 75 241 122.571C223.524 128.75 211 145.409 211 165 211 189.853 231.147 210 256 210 280.853 210 301 189.853 301 165 301 145.408 288.476 128.749 271 122.571L271 75 391 75C418.958 75 442.449 55.878 449.11 30L497 30C505.284 30 512 23.284 512 15 512 6.716 505.284 0 497 0L15 0C6.716 0 0 6.716 0 15 0 23.284 6.716 30 15 30Z" fill="#44177A"/></g></svg>