<svg width="512" height="512" viewBox="0 0 512 512" xmlns="http://www.w3.org/2000/svg" xmlns:xlink="http://www.w3.org/1999/xlink" id="Capa_1" overflow="hidden"><g><path d="M45 259.424C53.262 259.424 60 266.148 60 274.424L90 274.424C90 254.894 77.422 238.4 60 232.187L60 154.424 121 154.424 121 184.424 161.195 184.424C163.597 189.639 166.322 194.341 169.633 199.028L149.506 233.833 227.465 278.833 247.768 243.677C253.276 244.131 258.754 244.116 264.262 243.721L284.535 278.833 362.494 233.833 342.191 198.721C345.296 194.195 348.05 189.419 350.394 184.424L391 184.424 391 154.424 452 154.424 452 232.187C434.578 238.4 422 254.894 422 274.424L452 274.424C452 266.148 458.738 259.424 467 259.424 475.262 259.424 482 266.148 482 274.424L512 274.424C512 254.894 499.422 238.4 482 232.187L482 124.424 391 124.424 391 94.424 350.805 94.424C348.403 89.209 345.678 84.507 342.367 79.82L362.494 45 284.535-2.13163e-14 264.232 35.171C258.783 34.717 253.275 34.702 247.738 35.127L227.494-2.13163e-14 149.506 45 169.809 80.127C166.704 84.653 163.95 89.429 161.606 94.424L121 94.424 121 124.424 30 124.424 30 232.187C12.578 238.4-2.84217e-14 254.894-2.84217e-14 274.424L30 274.424C30 266.147 36.738 259.424 45 259.424ZM256 94.424C280.814 94.424 301 114.61 301 139.424 301 164.238 280.814 184.424 256 184.424 231.186 184.424 211 164.238 211 139.424 211 114.61 231.186 94.424 256 94.424Z" fill="#44177A"/><path d="M482 452 30 452C13.447 452 0 465.462 0 482 0 498.538 13.447 512 30 512L482 512C498.553 512 512 498.538 512 482 512 465.462 498.553 452 482 452Z" fill="#44177A"/><path d="M30 302 30 422 211 422 211 302 136 302 136 362 105 362 105 302Z" fill="#44177A"/><path d="M301 302 301 422 482 422 482 302 407 302 407 362 376 362 376 302Z" fill="#44177A"/></g></svg>