<svg width="512" height="512" viewBox="0 0 512 512" xmlns="http://www.w3.org/2000/svg" xmlns:xlink="http://www.w3.org/1999/xlink" id="Capa_1" overflow="hidden"><g><path d="M367 115.17 367 111C367 49.79 317.21 0 256 0 194.79 0 145 49.79 145 111L145 115.17C149.432 114.875 363.213 114.918 367 115.17ZM288 48C296.84 48 304 55.16 304 64 304 72.84 296.84 80 288 80 279.16 80 272 72.84 272 64 272 55.16 279.16 48 288 48ZM224 48C232.84 48 240 55.16 240 64 240 72.84 232.84 80 224 80 215.16 80 208 72.84 208 64 208 55.16 215.16 48 224 48Z" fill="#336699"/><path d="M207 224 305 224 305 274 207 274Z" fill="#336699"/><path d="M454.8 170.336C455.089 168.495 455 176.069 455 79.5L481 60C484.777 57.167 487 52.722 487 48L487 15C487 6.716 480.284 1.42109e-14 472 1.42109e-14 463.716 1.42109e-14 457 6.716 457 15L457 40.5 440 53.25 423 40.5 423 15C423 6.716 416.284 1.42109e-14 408 1.42109e-14 399.716 1.42109e-14 393 6.716 393 15L393 48C393 52.722 395.223 57.167 399 60L425 79.5C425 175.211 424.909 168.479 425.2 170.336 417.985 172.673 411.518 176.666 406.251 181.876 402.413 160.931 384.035 145 362 145L150 145C127.965 145 109.587 160.931 105.749 181.875 100.482 176.666 94.015 172.672 86.8 170.335 87.089 168.494 87 176.068 87 79.499L113 60C116.777 57.167 119 52.722 119 48L119 15C119 6.716 112.284 1.42109e-14 104 1.42109e-14 95.716 1.42109e-14 89 6.716 89 15L89 40.5 72 53.25 55 40.5 55 15C55 6.716 48.284 1.42109e-14 40 1.42109e-14 31.716 1.42109e-14 25 6.716 25 15L25 48C25 52.722 27.223 57.167 31 60L57 79.5C57 175.211 56.909 168.479 57.2 170.336 37.935 176.576 24 194.656 24 216 24 242.51 45.49 264 72 264 84.787 264 96.397 258.99 105 250.838L105 340.25C107.31 340.08 109.65 340 112 340 420.643 340 402.012 339.883 407 340.25L407 250.838C415.603 258.99 427.213 264 440 264 466.51 264 488 242.51 488 216 488 194.656 474.065 176.576 454.8 170.336ZM335 289C335 297.28 328.28 304 320 304L192 304C183.72 304 177 297.28 177 289L177 209C177 200.72 183.72 194 192 194L320 194C328.28 194 335 200.72 335 209Z" fill="#336699"/><path d="M400 370 112 370C72.85 370 41 401.85 41 441 41 480.15 72.85 512 112 512L400 512C439.15 512 471 480.15 471 441 471 401.85 439.15 370 400 370ZM71 441C71 418.39 89.39 400 112 400 134.61 400 153 418.39 153 441 153 463.61 134.61 482 112 482 89.39 482 71 463.61 71 441ZM400 482C377.39 482 359 463.61 359 441 359 418.39 377.39 400 400 400 422.61 400 441 418.39 441 441 441 463.61 422.61 482 400 482Z" fill="#336699"/><circle cx="112" cy="441" r="16" fill="#336699"/><circle cx="400" cy="441" r="16" fill="#336699"/></g></svg>