<svg width="682.667" height="682.667" viewBox="0 -61 512 512" xmlns="http://www.w3.org/2000/svg" xmlns:xlink="http://www.w3.org/1999/xlink" overflow="hidden"><path d="M302 30 422 30 422 90 512 90 512 0 302 0Z" fill="#FFFFFF"/><path d="M422 180 452 180 452 210 422 210 422 240 512 240 512 120 422 120Z" fill="#FFFFFF"/><path d="M422 300 452 300 452 330 422 330 422 360 302 360 302 390 512 390 512 270 422 270Z" fill="#FFFFFF"/><path d="M0 60 392 60 392 240 0 240Z" fill="#FFFFFF"/><path d="M151 360 121 360 121 390 272 390 272 360 241 360 241 330 392 330 392 270 0 270 0 330 151 330Z" fill="#FFFFFF"/></svg>