<svg width="512" height="512" viewBox="0 0 64 64" xmlns="http://www.w3.org/2000/svg" xmlns:xlink="http://www.w3.org/1999/xlink" id="Layer_5" overflow="hidden"><path d="M54 41 48 41 48 43 45 43 45 45 57 45 57 43 54 43Z" fill="#FFFFFF"/><path d="M53 19C53.313 19 53.983 17.977 54.462 16L51.538 16C52.017 17.977 52.687 19 53 19Z" fill="#FFFFFF"/><path d="M49.168 14C49.094 13.343 49.043 12.673 49.019 12L45.069 12C45.157 12.698 45.332 13.369 45.589 14Z" fill="#FFFFFF"/><path d="M54.819 14C54.896 13.386 54.953 12.723 54.98 12L51.018 12C51.045 12.723 51.103 13.386 51.179 14Z" fill="#FFFFFF"/><path d="M54.819 8 51.18 8C51.103 8.614 51.046 9.277 51.019 10L54.981 10C54.954 9.277 54.896 8.614 54.819 8Z" fill="#FFFFFF"/><path d="M49.168 8 45.589 8C45.333 8.631 45.157 9.302 45.069 10L49.019 10C49.043 9.327 49.094 8.657 49.168 8Z" fill="#FFFFFF"/><path d="M46.765 16C47.666 17.121 48.863 17.99 50.236 18.498 49.924 17.771 49.676 16.919 49.484 16Z" fill="#FFFFFF"/><path d="M53 3C52.687 3 52.017 4.023 51.538 6L54.462 6C53.983 4.023 53.313 3 53 3Z" fill="#FFFFFF"/><path d="M50.236 3.502C48.863 4.01 47.666 4.879 46.765 6L49.484 6C49.677 5.081 49.924 4.229 50.236 3.502Z" fill="#FFFFFF"/><path d="M56.981 10 60.931 10C60.843 9.302 60.668 8.631 60.411 8L56.832 8C56.906 8.657 56.957 9.327 56.981 10Z" fill="#FFFFFF"/><path d="M56.832 14 60.411 14C60.667 13.369 60.843 12.698 60.931 12L56.981 12C56.957 12.673 56.906 13.343 56.832 14Z" fill="#FFFFFF"/><path d="M59.235 16 56.516 16C56.324 16.919 56.076 17.771 55.764 18.498 57.137 17.99 58.334 17.121 59.235 16Z" fill="#FFFFFF"/><path d="M59.235 6C58.334 4.879 57.137 4.01 55.764 3.502 56.076 4.229 56.324 5.081 56.516 6Z" fill="#FFFFFF"/><path d="M60 25 42 25C41.449 25 41 25.449 41 26L41 35 61 35 61 26C61 25.449 60.551 25 60 25Z" fill="#FFFFFF"/><path d="M41 38C41 38.551 41.449 39 42 39L60 39C60.551 39 61 38.551 61 38L61 37 41 37Z" fill="#FFFFFF"/><path d="M4 23 14 23C14.551 23 15 22.551 15 22L15 21 3 21 3 22C3 22.551 3.449 23 4 23Z" fill="#FFFFFF"/><path d="M3 7 15 7 15 19 3 19Z" fill="#FFFFFF"/><path d="M15 4C15 3.449 14.551 3 14 3L4 3C3.449 3 3 3.449 3 4L3 5 15 5Z" fill="#FFFFFF"/><path d="M12 29C7.038 29 3 33.038 3 38 3 42.962 7.038 47 12 47 16.962 47 21 42.962 21 38 21 33.038 16.962 29 12 29ZM12 45C10.346 45 9 43.654 9 42 9 40.346 10.346 39 12 39 13.654 39 15 40.346 15 42 15 43.654 13.654 45 12 45ZM15.536 38.464C13.587 36.515 10.414 36.515 8.465 38.464L7.05 37.05C9.779 34.321 14.22 34.321 16.949 37.05ZM18.364 35.636C14.854 32.127 9.145 32.127 5.635 35.636L4.221 34.222C8.51 29.933 15.489 29.933 19.778 34.222Z" fill="#FFFFFF"/><circle cx="12" cy="42" r="1" fill="#FFFFFF"/><path d="M50 50C50 50.551 49.551 51 49 51L43.95 51C43.977 51.331 44 51.662 44 52 44 52.338 43.977 52.669 43.95 53L49 53C50.654 53 52 51.654 52 50L52 47 50 47Z" fill="#FFFFFF"/><path d="M14 51C13.449 51 13 50.551 13 50L13 48.95C12.67 48.98 12.338 49 12 49 11.662 49 11.33 48.979 11 48.95L11 50C11 51.654 12.346 53 14 53L20.05 53C20.023 52.669 20 52.338 20 52 20 51.662 20.023 51.331 20.05 51Z" fill="#FFFFFF"/><path d="M28 34 30 34 30 36 28 36Z" fill="#FFFFFF"/><path d="M28 30 30 30 30 32 28 32Z" fill="#FFFFFF"/><path d="M28 15 28 28 30 28 30 15C30 13.346 28.654 12 27 12L17 12 17 14 27 14C27.551 14 28 14.449 28 15Z" fill="#FFFFFF"/><path d="M34 34 36 34 36 36 34 36Z" fill="#FFFFFF"/><path d="M34 30 36 30 36 32 34 32Z" fill="#FFFFFF"/><path d="M36 13C36 12.449 36.449 12 37 12L43.05 12C43.018 11.671 43 11.338 43 11 43 10.662 43.018 10.329 43.05 10L37 10C35.346 10 34 11.346 34 13L34 28 36 28Z" fill="#FFFFFF"/><path d="M34 42.201 34 40C34 38.895 33.105 38 32 38 30.895 38 30 38.895 30 40L30 42.201C25.436 43.128 22 47.162 22 52 22 57.523 26.477 62 32 62 37.523 62 42 57.523 42 52 42 47.162 38.564 43.128 34 42.201ZM32 58C28.686 58 26 55.314 26 52 26 49.389 27.671 47.173 30 46.349L30 50C30 51.105 30.895 52 32 52 33.105 52 34 51.105 34 50L34 46.349C36.329 47.174 38 49.389 38 52 38 55.314 35.314 58 32 58Z" fill="#FFFFFF"/></svg>