<svg width="512" height="512" viewBox="0 0 510 510" xmlns="http://www.w3.org/2000/svg" xmlns:xlink="http://www.w3.org/1999/xlink" id="Layer_1" overflow="hidden"><g><path d="M390 270C373.432 270 360 283.432 360 300 360 283.432 346.568 270 330 270 313.432 270 300 283.432 300 300 300 283.432 286.568 270 270 270 253.432 270 240 283.432 240 300L240 165C240 148.432 226.568 135 210 135 193.432 135 180 148.432 180 165L180 270 180 345 178.215 345 150 307.381C142.368 294.824 124.782 291.813 111.723 300.519 99.313 308.792 95.006 325.011 101.676 338.351L167.563 485.125C175.185 500.37 190.767 510 207.811 510L375 510C399.853 510 420 489.853 420 465L420 315 420 300C420 283.432 406.568 270 390 270Z" id="XMLID_225_" fill="#FFFFFF"/><path d="M120 120C120 70.374 160.374 30 210 30 259.626 30 300 70.374 300 120 300 145.983 288.577 170.213 270 186.969L270 223.886C283.803 215.883 296.047 205.15 305.723 192.373 321.604 171.398 330 146.372 330 120 330 53.832 276.168-1.42109e-14 210-1.42109e-14 143.832-1.42109e-14 90 53.832 90 120 90 146.372 98.395 171.398 114.277 192.373 123.953 205.149 136.197 215.883 150 223.886L150 186.969C131.423 170.213 120 145.983 120 120Z" id="XMLID_955_" fill="#FFFFFF"/><path d="M252.331 77.479C241.002 66.2 225.981 60 210.003 60 209.912 60 209.819 60 209.729 60 177.872 60.143 151.669 85.152 150.078 116.936 149.637 125.748 151.186 134.44 154.419 142.438 159.608 129.704 169.043 119.139 180.966 112.517 184.344 99.727 196.237 90.062 209.862 90L210.001 90C217.99 90 225.503 93.101 231.167 98.739 235.054 102.609 237.747 107.355 239.067 112.535 251.005 119.176 260.446 129.769 265.622 142.537 268.479 135.479 270 127.852 270 120 270 103.923 263.725 88.822 252.331 77.479Z" id="XMLID_958_" fill="#FFFFFF"/></g></svg>