<svg width="512" height="512" viewBox="0 0 64 64" xmlns="http://www.w3.org/2000/svg" xmlns:xlink="http://www.w3.org/1999/xlink" overflow="hidden"><g id="Solid"><path d="M56 26C55.2867 26.0013 54.5795 26.1307 53.912 26.382L47.736 15.682C50.3331 13.6239 50.7701 9.85014 48.712 7.25303 46.6539 4.65593 42.8801 4.21897 40.283 6.27706 39.115 7.20263 38.3333 8.52974 38.09 10L25.91 10C25.3658 6.73128 22.2749 4.52258 19.0062 5.06674 15.7374 5.6109 13.5287 8.70185 14.0729 11.9706 14.3172 13.4382 15.0981 14.7627 16.264 15.687L10.088 26.387C6.98526 25.2235 3.52681 26.7956 2.36333 29.8983 1.19984 33.0011 2.77192 36.4595 5.87465 37.623 7.23292 38.1323 8.72973 38.1323 10.088 37.623L16.264 48.323C13.6665 50.3806 13.2288 54.1543 15.2863 56.7518 17.3439 59.3493 21.1176 59.787 23.7151 57.7294 24.8852 56.8026 25.6677 55.4729 25.91 54L38.09 54C38.6342 57.2687 41.7251 59.4774 44.9938 58.9333 48.2626 58.3891 50.4713 55.2981 49.9271 52.0294 49.6828 50.5618 48.9019 49.2373 47.736 48.313L53.912 37.618C57.0148 38.7814 60.4732 37.2093 61.6366 34.1066 62.8001 31.0038 61.2279 27.5454 58.1252 26.3819 57.4457 26.1272 56.7257 25.9977 56 26ZM25.91 12 38.09 12C38.3368 13.4545 39.1107 14.7671 40.264 15.687L36.634 21.974C36.624 21.99 36.625 22.009 36.616 22.026 33.6906 20.6584 30.3094 20.6584 27.384 22.026 27.375 22.009 27.376 21.99 27.366 21.974L23.736 15.687C24.8893 14.7671 25.6632 13.4545 25.91 12ZM27.7 33.828C27.2029 34.0687 26.6048 33.8608 26.3642 33.3637 26.1327 32.8857 26.3153 32.3102 26.78 32.053 30.055 30.3549 33.951 30.3549 37.226 32.053 37.7092 32.3204 37.8842 32.9289 37.6167 33.4122 37.3596 33.8768 36.784 34.0594 36.306 33.828 33.6072 32.432 30.3988 32.432 27.7 33.828ZM35.416 36.558C35.2221 37.0751 34.6457 37.3371 34.1285 37.1432 34.1284 37.1431 34.1282 37.1431 34.128 37.143 32.7583 36.627 31.2477 36.627 29.878 37.143 29.3566 37.3251 28.7863 37.0501 28.6042 36.5287 28.4276 36.0231 28.6806 35.4683 29.178 35.27 31.0013 34.586 33.0107 34.586 34.834 35.27 35.349 35.4664 35.6079 36.0425 35.413 36.558ZM25.519 30.6C25.0465 30.8866 24.4311 30.736 24.1445 30.2635 23.8579 29.791 24.0085 29.1756 24.481 28.889 29.099 26.0759 34.901 26.0759 39.519 28.889 39.9915 29.1756 40.1421 29.791 39.8555 30.2635 39.5689 30.736 38.9535 30.8866 38.481 30.6 34.5009 28.1739 29.4991 28.1739 25.519 30.6ZM18.019 16.652C19.303 17.112 20.7069 17.112 21.991 16.652L25.639 22.971C25.648 22.987 25.661 22.998 25.671 23.013 23.0297 24.8695 21.3395 27.7945 21.05 31.01 21.032 31.01 21.018 31 21 31L13.91 31C13.6703 29.5821 12.9297 28.2972 11.823 27.379ZM18.019 47.342 11.823 36.621C12.9297 35.7028 13.6703 34.4179 13.91 33L21 33C21.018 33 21.032 32.991 21.05 32.99 21.3384 36.2061 23.0279 39.1322 25.669 40.99 25.659 41.006 25.643 41.014 25.634 41.03L21.986 47.349C20.702 46.889 19.298 46.889 18.014 47.349ZM38.09 52 25.91 52C25.6632 50.5455 24.8893 49.2329 23.736 48.313L27.366 42.026C27.376 42.01 27.375 41.991 27.384 41.974 30.3094 43.3415 33.6906 43.3415 36.616 41.974 36.625 41.991 36.624 42.01 36.634 42.026L40.264 48.313C39.1107 49.2329 38.3368 50.5455 38.09 52ZM45.99 47.345C44.706 46.885 43.3021 46.885 42.018 47.345L38.37 41.026C38.361 41.01 38.345 41.002 38.335 40.986 40.9761 39.1282 42.6656 36.2021 42.954 32.986 42.972 32.986 42.986 32.996 43.004 32.996L50.094 32.996C50.3337 34.4139 51.0743 35.6988 52.181 36.617ZM50.09 31 43 31C42.982 31 42.968 31.009 42.95 31.01 42.6608 27.7965 40.9727 24.8729 38.334 23.016 38.344 23.001 38.357 22.99 38.366 22.974L42.014 16.655C43.298 17.115 44.702 17.115 45.986 16.655L52.177 27.379C51.0703 28.2972 50.3297 29.5821 50.09 31Z" fill="#FFFFFF"/></g></svg>