<svg viewBox="0 0 512 512" xmlns="http://www.w3.org/2000/svg" xmlns:xlink="http://www.w3.org/1999/xlink" id="Capa_1" overflow="hidden"><g><g><path d="M421 188.789 421 87.237C438.422 81.024 451 64.53 451 45 451 20.186 430.814 0 406 0 380.772 0 361 20.577 361 45 361 64.53 373.578 81.024 391 87.237L391 188.789 327.748 252.041 362.582 321.709 389.418 308.291 364.252 257.959 406 216.211 447.748 257.959 422.582 308.291 449.418 321.709 484.252 252.041 421 188.789Z" fill="#FFFFFF"/></g></g><g><g><path d="M142.119 101.514 142.119 101.499C127.786 72.848 96.337 54.844 60.366 61.436 25.386 68.35 0 99.302 0 135 0 175.994 32.924 209.914 75 210 130.536 210 167.047 151.467 142.119 101.514ZM90 150 60 150 60 120 90 120 90 150Z" fill="#FFFFFF"/></g></g><g><g><path d="M481 482 481 360 421 360 421 420 391 420 391 360 331 360 331 482 270 482 270 452 240 452 240 388.251C220.92 407.783 194.392 420 165 420L164.941 420C136.045 419.936 109.385 408.203 90 388.321L90 452 60 452 60 512C65.557 512 512 512 512 512L512 482 481 482Z" fill="#FFFFFF"/></g></g><g><g><path d="M232.119 281.499 192.797 202.864 120.69 229.235C106.859 235.939 93.107 240 75 240L74.941 240C62.988 239.974 51.491 237.755 40.636 234.011L97.88 348.501C110.654 374.048 136.318 389.941 165 390 221.149 390 256.62 330.69 232.119 281.499Z" fill="#FFFFFF"/></g></g><g><g><path d="M363.772 106.906C344.013 93.386 331 70.695 331 45 331 32.941 334.096 21.531 339.286 11.299L133.834 48.164C148.431 58.063 160.677 71.539 168.955 88.081 182.946 116.215 183.962 149.672 170.185 179.313L363.772 106.906Z" fill="#FFFFFF"/></g></g><g></g><g></g><g></g><g></g><g></g><g></g><g></g><g></g><g></g><g></g><g></g><g></g><g></g><g></g><g></g></svg>