<svg width="512" height="512" viewBox="0 0 512 512" xmlns="http://www.w3.org/2000/svg" xmlns:xlink="http://www.w3.org/1999/xlink" id="Capa_1" overflow="hidden">
<g><path d="M250.003 193.345C217.177 193.345 190.471 220.051 190.471 252.876 190.471 285.702 217.177 312.408 250.003 312.408 265.371 312.408 279.397 306.554 289.97 296.958 291.521 295.299 293.11 293.677 294.736 292.092 303.937 281.609 309.534 267.888 309.534 252.876 309.534 220.051 282.828 193.345 250.003 193.345Z" class="MsftOfcResponsive_Fill_44177a" fill="#44177A"/><path d="M160.471 252.876C160.471 203.508 200.635 163.345 250.003 163.345 299.371 163.345 339.534 203.508 339.534 252.876 339.534 256.111 339.357 259.305 339.021 262.452 349.596 257.907 360.813 254.585 372.494 252.652 372.372 185.211 317.472 130.382 250.003 130.382 182.459 130.382 127.508 185.332 127.508 252.876 127.508 320.42 182.459 375.371 250.003 375.371 250.743 375.371 251.474 375.338 252.211 375.325 253.912 363.608 257.013 352.34 261.338 341.694 257.625 342.165 253.842 342.409 250.003 342.409 200.635 342.408 160.471 302.244 160.471 252.876Z" class="MsftOfcResponsive_Fill_44177a" fill="#44177A"/><path d="M396.345 512C460.117 512 512 460.117 512 396.345 512 332.572 460.117 280.689 396.345 280.689 365.452 280.689 337.349 292.864 316.582 312.668 314.856 314.588 313.048 316.432 311.165 318.196 292.252 338.794 280.688 366.243 280.688 396.345 280.688 460.117 332.571 512 396.345 512ZM381.416 317.344 411.416 317.344 411.416 381.345 448.349 381.345 448.349 411.345 381.416 411.345Z" class="MsftOfcResponsive_Fill_44177a" fill="#44177A"/><path d="M250.975 405.354C250.65 405.356 250.328 405.371 250.003 405.371 165.917 405.371 97.508 336.962 97.508 252.876 97.508 168.79 165.917 100.382 250.003 100.382 333.404 100.382 401.369 167.683 402.471 250.827 440.56 252.411 474.914 268.688 500.005 294.13L500.005 202.152 462.157 196.313C456.98 175.757 448.876 156.209 437.969 137.969L460.616 107.059 392.945 39.388 362.035 62.035C343.797 51.128 324.248 43.023 303.691 37.847L297.853-7.10543e-15 202.153-7.10543e-15 196.314 37.848C175.758 43.025 156.21 51.129 137.97 62.036L107.06 39.389 39.389 107.06 62.036 137.97C51.129 156.209 43.024 175.758 37.848 196.314L-2.84217e-14 202.152-2.84217e-14 297.852 37.848 303.691C43.025 324.248 51.129 343.796 62.036 362.035L39.389 392.945 107.06 460.616 137.97 437.969C156.209 448.876 175.758 456.981 196.314 462.157L202.153 500.005 294.131 500.005C269.331 475.549 253.241 442.292 250.975 405.354Z" class="MsftOfcResponsive_Fill_44177a" fill="#44177A"/></g></svg>